{
  "accessors": [
    {
      "bufferView": 2,
      "componentType": 5126,
      "count": 8988,
      "max": [
        1.0001399517059326,
        1.1998413801193237,
        1.0012266635894775
      ],
      "min": [
        0.9599405527114868,
        -0.8001593351364136,
        -1.0
      ],
      "type": "VEC3"
    },
    {
      "bufferView": 2,
      "byteOffset": 107856,
      "componentType": 5126,
      "count": 8988,
      "max": [
        1.0,
        1.0,
        1.0
      ],
      "min": [
        -1.0,
        -1.0,
        -1.0
      ],
      "type": "VEC3"
    },
    {
      "bufferView": 1,
      "componentType": 5126,
      "count": 8988,
      "max": [
        0.8626019358634949,
        0.9931347966194153
      ],
      "min": [
        -9.827164859643744e-09,
        0.0
      ],
      "type": "VEC2"
    },
    {
      "bufferView": 0,
      "componentType": 5125,
      "count": 15990,
      "type": "SCALAR"
    },
    {
      "bufferView": 2,
      "byteOffset": 215712,
      "componentType": 5126,
      "count": 1334,
      "max": [
        1.0,
        1.1998413801193237,
        1.3632500171661377
      ],
      "min": [
        -4.843435287475586,
        -0.8456586599349976,
        -1.0
      ],
      "type": "VEC3"
    },
    {
      "bufferView": 2,
      "byteOffset": 231720,
      "componentType": 5126,
      "count": 1334,
      "max": [
        0.8685030937194824,
        1.0,
        1.0
      ],
      "min": [
        -1.0,
        -1.0,
        -1.0
      ],
      "type": "VEC3"
    },
    {
      "bufferView": 1,
      "byteOffset": 71904,
      "componentType": 5126,
      "count": 1334,
      "max": [
        0.8626019358634949,
        0.9931347966194153
      ],
      "min": [
        -8.841639420609226e-09,
        0.0
      ],
      "type": "VEC2"
    },
    {
      "bufferView": 0,
      "byteOffset": 63960,
      "componentType": 5125,
      "count": 2631,
      "type": "SCALAR"
    },
    {
      "bufferView": 2,
      "byteOffset": 247728,
      "componentType": 5126,
      "count": 2766,
      "max": [
        1.0000033378601074,
        1.3126819133758545,
        1.3432496786117554
      ],
      "min": [
        -4.808366298675537,
        -1.1366182565689087,
        -1.5653598308563232
      ],
      "type": "VEC3"
    },
    {
      "bufferView": 2,
      "byteOffset": 280920,
      "componentType": 5126,
      "count": 2766,
      "max": [
        1.0,
        1.0,
        1.0
      ],
      "min": [
        -1.0,
        -1.0,
        -1.0
      ],
      "type": "VEC3"
    },
    {
      "bufferView": 1,
      "byteOffset": 82576,
      "componentType": 5126,
      "count": 2766,
      "max": [
        0.8626019358634949,
        1.0000001192092896
      ],
      "min": [
        -9.827164859643744e-09,
        0.0
      ],
      "type": "VEC2"
    },
    {
      "bufferView": 0,
      "byteOffset": 74484,
      "componentType": 5125,
      "count": 6780,
      "type": "SCALAR"
    },
    {
      "bufferView": 2,
      "byteOffset": 314112,
      "componentType": 5126,
      "count": 1296,
      "max": [
        -4.586758613586426,
        1.3326812982559204,
        1.3632500171661377
      ],
      "min": [
        -4.843435287475586,
        -1.1566150188446045,
        -1.5853602886199951
      ],
      "type": "VEC3"
    },
    {
      "bufferView": 2,
      "byteOffset": 329664,
      "componentType": 5126,
      "count": 1296,
      "max": [
        1.0,
        1.0,
        1.0
      ],
      "min": [
        -0.6369230151176453,
        -1.0,
        -1.0
      ],
      "type": "VEC3"
    },
    {
      "bufferView": 1,
      "byteOffset": 104704,
      "componentType": 5126,
      "count": 1296,
      "max": [
        0.0,
        0.0
      ],
      "min": [
        0.0,
        0.0
      ],
      "type": "VEC2"
    },
    {
      "bufferView": 0,
      "byteOffset": 101604,
      "componentType": 5125,
      "count": 2217,
      "type": "SCALAR"
    },
    {
      "bufferView": 2,
      "byteOffset": 345216,
      "componentType": 5126,
      "count": 1278,
      "max": [
        5.5959320068359375,
        -0.3405718207359314,
        0.7037388682365417
      ],
      "min": [
        -5.553297519683838,
        -0.6594301462173462,
        -0.5320056080818176
      ],
      "type": "VEC3"
    },
    {
      "bufferView": 2,
      "byteOffset": 360552,
      "componentType": 5126,
      "count": 1278,
      "max": [
        0.9982739686965942,
        1.0,
        1.0
      ],
      "min": [
        -1.0,
        -1.0,
        -1.0
      ],
      "type": "VEC3"
    },
    {
      "bufferView": 1,
      "byteOffset": 115072,
      "componentType": 5126,
      "count": 1278,
      "max": [
        0.0,
        0.0
      ],
      "min": [
        0.0,
        0.0
      ],
      "type": "VEC2"
    },
    {
      "bufferView": 0,
      "byteOffset": 110472,
      "componentType": 5125,
      "count": 2376,
      "type": "SCALAR"
    },
    {
      "bufferView": 2,
      "byteOffset": 375888,
      "componentType": 5126,
      "count": 138,
      "max": [
        5.395925521850586,
        -0.360571950674057,
        0.5393442511558533
      ],
      "min": [
        -4.993805408477783,
        -0.6394297480583191,
        -0.24295061826705933
      ],
      "type": "VEC3"
    },
    {
      "bufferView": 2,
      "byteOffset": 377544,
      "componentType": 5126,
      "count": 138,
      "max": [
        0.0,
        1.0,
        -2.479328884419374e-07
      ],
      "min": [
        0.0,
        -1.0,
        -7.000456321293314e-07
      ],
      "type": "VEC3"
    },
    {
      "bufferView": 1,
      "byteOffset": 125296,
      "componentType": 5126,
      "count": 138,
      "max": [
        0.0,
        0.0
      ],
      "min": [
        0.0,
        0.0
      ],
      "type": "VEC2"
    },
    {
      "bufferView": 0,
      "byteOffset": 119976,
      "componentType": 5125,
      "count": 402,
      "type": "SCALAR"
    },
    {
      "bufferView": 2,
      "byteOffset": 379200,
      "componentType": 5126,
      "count": 1292,
      "max": [
        7.9063029289245605,
        -0.2661490738391876,
        0.991284191608429
      ],
      "min": [
        -7.850943565368652,
        -0.7167927026748657,
        -0.7551979422569275
      ],
      "type": "VEC3"
    },
    {
      "bufferView": 2,
      "byteOffset": 394704,
      "componentType": 5126,
      "count": 1292,
      "max": [
        0.9982740879058838,
        1.0,
        1.0
      ],
      "min": [
        -1.0,
        -1.0,
        -1.0
      ],
      "type": "VEC3"
    },
    {
      "bufferView": 1,
      "byteOffset": 126400,
      "componentType": 5126,
      "count": 1292,
      "max": [
        0.0,
        0.0
      ],
      "min": [
        0.0,
        0.0
      ],
      "type": "VEC2"
    },
    {
      "bufferView": 0,
      "byteOffset": 121584,
      "componentType": 5125,
      "count": 2400,
      "type": "SCALAR"
    },
    {
      "bufferView": 2,
      "byteOffset": 410208,
      "componentType": 5126,
      "count": 138,
      "max": [
        7.623632907867432,
        -0.29441535472869873,
        0.7589446902275085
      ],
      "min": [
        -7.060211181640625,
        -0.6885260939598083,
        -0.34667548537254333
      ],
      "type": "VEC3"
    },
    {
      "bufferView": 2,
      "byteOffset": 411864,
      "componentType": 5126,
      "count": 138,
      "max": [
        0.0,
        1.0,
        3.337846123940835e-07
      ],
      "min": [
        0.0,
        -1.0,
        -7.833507993382227e-07
      ],
      "type": "VEC3"
    },
    {
      "bufferView": 1,
      "byteOffset": 136736,
      "componentType": 5126,
      "count": 138,
      "max": [
        0.0,
        0.0
      ],
      "min": [
        0.0,
        0.0
      ],
      "type": "VEC2"
    },
    {
      "bufferView": 0,
      "byteOffset": 131184,
      "componentType": 5125,
      "count": 402,
      "type": "SCALAR"
    }
  ],
  "asset": {
    "extras": {
      "author": "muneeb77 (https://sketchfab.com/muneeb77)",
      "license": "CC-BY-4.0 (http://creativecommons.org/licenses/by/4.0/)",
      "source": "https://sketchfab.com/3d-models/samurai-sword-sci-fi-71310fd9e1f6471d83e8980ba8638c03",
      "title": "samurai sword sci fi"
    },
    "generator": "Sketchfab-15.55.0",
    "version": "2.0"
  },
  "bufferViews": [
    {
      "buffer": 0,
      "byteLength": 132792,
      "name": "floatBufferViews",
      "target": 34963
    },
    {
      "buffer": 0,
      "byteLength": 137840,
      "byteOffset": 132792,
      "byteStride": 8,
      "name": "floatBufferViews",
      "target": 34962
    },
    {
      "buffer": 0,
      "byteLength": 413520,
      "byteOffset": 270632,
      "byteStride": 12,
      "name": "floatBufferViews",
      "target": 34962
    }
  ],
  "buffers": [
    {
      "byteLength": 684152,
      "uri": "scene.bin"
    }
  ],
  "extensionsUsed": [
    "KHR_materials_emissive_strength",
    "KHR_materials_clearcoat"
  ],
  "materials": [
    {
      "doubleSided": true,
      "name": "Material",
      "pbrMetallicRoughness": {
        "baseColorFactor": [
          0.0,
          0.0,
          0.0,
          1.0
        ],
        "metallicFactor": 0.0
      }
    },
    {
      "doubleSided": true,
      "name": "Material.004",
      "pbrMetallicRoughness": {
        "baseColorFactor": [
          0.0,
          0.0,
          0.0,
          1.0
        ],
        "metallicFactor": 0.0
      }
    },
    {
      "doubleSided": true,
      "emissiveFactor": [
        1.0,
        1.0,
        1.0
      ],
      "extensions": {
        "KHR_materials_clearcoat": {
          "clearcoatFactor": 1.0,
          "clearcoatRoughnessFactor": 0.04
        },
        "KHR_materials_emissive_strength": {
          "emissiveStrength": 10.0
        }
      },
      "name": "Material.003",
      "pbrMetallicRoughness": {
        "baseColorFactor": [
          0.8,
          0.8,
          0.8,
          1.0
        ],
        "metallicFactor": 0.0,
        "roughnessFactor": 0.0
      }
    },
    {
      "doubleSided": true,
      "name": "Material.002",
      "pbrMetallicRoughness": {
        "baseColorFactor": [
          0.0,
          0.0,
          0.0,
          1.0
        ],
        "metallicFactor": 0.0,
        "roughnessFactor": 0.0
      }
    }
  ],
  "meshes": [
    {
      "name": "Cube_Material_0",
      "primitives": [
        {
          "attributes": {
            "NORMAL": 1,
            "POSITION": 0,
            "TEXCOORD_0": 2
          },
          "indices": 3,
          "material": 0,
          "mode": 4
        }
      ]
    },
    {
      "name": "Cube_Material.004_0",
      "primitives": [
        {
          "attributes": {
            "NORMAL": 5,
            "POSITION": 4,
            "TEXCOORD_0": 6
          },
          "indices": 7,
          "material": 1,
          "mode": 4
        }
      ]
    },
    {
      "name": "Cube_Material.003_0",
      "primitives": [
        {
          "attributes": {
            "NORMAL": 9,
            "POSITION": 8,
            "TEXCOORD_0": 10
          },
          "indices": 11,
          "material": 2,
          "mode": 4
        }
      ]
    },
    {
      "name": "Cube_Material.002_0",
      "primitives": [
        {
          "attributes": {
            "NORMAL": 13,
            "POSITION": 12,
            "TEXCOORD_0": 14
          },
          "indices": 15,
          "material": 3,
          "mode": 4
        }
      ]
    },
    {
      "name": "Plane_Material.004_0",
      "primitives": [
        {
          "attributes": {
            "NORMAL": 17,
            "POSITION": 16,
            "TEXCOORD_0": 18
          },
          "indices": 19,
          "material": 1,
          "mode": 4
        }
      ]
    },
    {
      "name": "Plane_Material.003_0",
      "primitives": [
        {
          "attributes": {
            "NORMAL": 21,
            "POSITION": 20,
            "TEXCOORD_0": 22
          },
          "indices": 23,
          "material": 2,
          "mode": 4
        }
      ]
    },
    {
      "name": "Plane.001_Material.004_0",
      "primitives": [
        {
          "attributes": {
            "NORMAL": 25,
            "POSITION": 24,
            "TEXCOORD_0": 26
          },
          "indices": 27,
          "material": 1,
          "mode": 4
        }
      ]
    },
    {
      "name": "Plane.001_Material.003_0",
      "primitives": [
        {
          "attributes": {
            "NORMAL": 29,
            "POSITION": 28,
            "TEXCOORD_0": 30
          },
          "indices": 31,
          "material": 2,
          "mode": 4
        }
      ]
    }
  ],
  "nodes": [
    {
      "children": [
        1
      ],
      "matrix": [
        1.0,
        0.0,
        0.0,
        0.0,
        0.0,
        2.220446049250313e-16,
        -1.0,
        0.0,
        0.0,
        1.0,
        2.220446049250313e-16,
        0.0,
        0.0,
        0.0,
        0.0,
        1.0
      ],
      "name": "Sketchfab_model"
    },
    {
      "children": [
        2
      ],
      "matrix": [
        0.009999999776482582,
        0.0,
        0.0,
        0.0,
        0.0,
        0.0,
        0.009999999776482582,
        0.0,
        0.0,
        -0.009999999776482582,
        0.0,
        0.0,
        0.0,
        0.0,
        0.0,
        1.0
      ],
      "name": "e2b4d94bffdc4d54858ac7a99841098e.fbx"
    },
    {
      "children": [
        3,
        8,
        11
      ],
      "name": "RootNode"
    },
    {
      "children": [
        4,
        5,
        6,
        7
      ],
      "matrix": [
        63.00929641723633,
        0.0,
        0.0,
        0.0,
        0.0,
        -7.091590181915473e-06,
        -43.52787017822208,
        0.0,
        0.0,
        63.0092964172355,
        -1.0265517380297432e-05,
        0.0,
        39.21636962890625,
        14.30160140991211,
        1.3205199241638184,
        1.0
      ],
      "name": "Cube"
    },
    {
      "mesh": 0,
      "name": "Cube_Material_0"
    },
    {
      "mesh": 1,
      "name": "Cube_Material.004_0"
    },
    {
      "mesh": 2,
      "name": "Cube_Material.003_0"
    },
    {
      "mesh": 3,
      "name": "Cube_Material.002_0"
    },
    {
      "children": [
        9,
        10
      ],
      "matrix": [
        100.0,
        0.0,
        0.0,
        0.0,
        -0.0,
        -1.629206793918314e-05,
        -99.99999999999868,
        0.0,
        0.0,
        99.99999999999868,
        -1.629206793918314e-05,
        0.0,
        -818.9227905273438,
        39.004520416259766,
        -58.43376541137695,
        1.0
      ],
      "name": "Plane"
    },
    {
      "mesh": 4,
      "name": "Plane_Material.004_0"
    },
    {
      "mesh": 5,
      "name": "Plane_Material.003_0"
    },
    {
      "children": [
        12,
        13
      ],
      "matrix": [
        80.53849029541016,
        0.0,
        0.0,
        0.0,
        -0.0,
        -1.3121385556120644e-05,
        -80.53849029540909,
        0.0,
        0.0,
        80.53849029540909,
        -1.3121385556120644e-05,
        0.0,
        -898.5111083984375,
        265.8826904296875,
        -44.05067443847656,
        1.0
      ],
      "name": "Plane.001"
    },
    {
      "mesh": 6,
      "name": "Plane.001_Material.004_0"
    },
    {
      "mesh": 7,
      "name": "Plane.001_Material.003_0"
    }
  ],
  "scene": 0,
  "scenes": [
    {
      "name": "Sketchfab_Scene",
      "nodes": [
        0
      ]
    }
  ]
}
