{
  "accessors": [
    {
      "bufferView": 1,
      "componentType": 5126,
      "count": 65532,
      "max": [
        1.8043068647384644,
        0.5969774723052979,
        1.5214426517486572
      ],
      "min": [
        -0.9860625863075256,
        -0.68342125415802,
        -1.6519365310668945
      ],
      "type": "VEC3"
    },
    {
      "bufferView": 1,
      "byteOffset": 786384,
      "componentType": 5126,
      "count": 65532,
      "max": [
        0.9999853372573853,
        0.9999905228614807,
        0.9999995231628418
      ],
      "min": [
        -0.9999764561653137,
        -0.9999905824661255,
        -0.9999995827674866
      ],
      "type": "VEC3"
    },
    {
      "bufferView": 0,
      "componentType": 5125,
      "count": 368520,
      "type": "SCALAR"
    },
    {
      "bufferView": 1,
      "byteOffset": 1572768,
      "componentType": 5126,
      "count": 65532,
      "max": [
        1.63724946975708,
        0.7013490200042725,
        1.6513824462890625
      ],
      "min": [
        -1.769529104232788,
        -0.680217981338501,
        -1.4131861925125122
      ],
      "type": "VEC3"
    },
    {
      "bufferView": 1,
      "byteOffset": 2359152,
      "componentType": 5126,
      "count": 65532,
      "max": [
        0.9997273087501526,
        0.9999988079071045,
        0.9999550580978394
      ],
      "min": [
        -0.9999696612358093,
        -0.9999710917472839,
        -0.9998968243598938
      ],
      "type": "VEC3"
    },
    {
      "bufferView": 0,
      "byteOffset": 1474080,
      "componentType": 5125,
      "count": 368634,
      "type": "SCALAR"
    },
    {
      "bufferView": 1,
      "byteOffset": 3145536,
      "componentType": 5126,
      "count": 65532,
      "max": [
        1.6041361093521118,
        0.4687546491622925,
        1.6619971990585327
      ],
      "min": [
        -1.7922006845474243,
        -0.6938112378120422,
        -1.6473994255065918
      ],
      "type": "VEC3"
    },
    {
      "bufferView": 1,
      "byteOffset": 3931920,
      "componentType": 5126,
      "count": 65532,
      "max": [
        0.9999530911445618,
        0.9999834895133972,
        0.9999920725822449
      ],
      "min": [
        -0.9999629259109497,
        -0.999976396560669,
        -0.9999919533729553
      ],
      "type": "VEC3"
    },
    {
      "bufferView": 0,
      "byteOffset": 2948616,
      "componentType": 5125,
      "count": 360648,
      "type": "SCALAR"
    },
    {
      "bufferView": 1,
      "byteOffset": 4718304,
      "componentType": 5126,
      "count": 65532,
      "max": [
        1.066178560256958,
        0.6868677139282227,
        1.0353565216064453
      ],
      "min": [
        -1.3204755783081055,
        -0.7003791928291321,
        -1.648055911064148
      ],
      "type": "VEC3"
    },
    {
      "bufferView": 1,
      "byteOffset": 5504688,
      "componentType": 5126,
      "count": 65532,
      "max": [
        0.9998751878738403,
        0.9999963045120239,
        0.9999416470527649
      ],
      "min": [
        -0.9999003410339355,
        -0.9999964237213135,
        -0.9999622702598572
      ],
      "type": "VEC3"
    },
    {
      "bufferView": 0,
      "byteOffset": 4391208,
      "componentType": 5125,
      "count": 366243,
      "type": "SCALAR"
    },
    {
      "bufferView": 1,
      "byteOffset": 6291072,
      "componentType": 5126,
      "count": 65532,
      "max": [
        1.7649239301681519,
        0.6994478702545166,
        1.575490117073059
      ],
      "min": [
        -1.3934396505355835,
        -0.6935176849365234,
        -1.5529574155807495
      ],
      "type": "VEC3"
    },
    {
      "bufferView": 1,
      "byteOffset": 7077456,
      "componentType": 5126,
      "count": 65532,
      "max": [
        0.9999638199806213,
        0.9999664425849915,
        0.9995052814483643
      ],
      "min": [
        -0.9999443888664246,
        -0.9999665021896362,
        -0.9993420243263245
      ],
      "type": "VEC3"
    },
    {
      "bufferView": 0,
      "byteOffset": 5856180,
      "componentType": 5125,
      "count": 364830,
      "type": "SCALAR"
    },
    {
      "bufferView": 1,
      "byteOffset": 7863840,
      "componentType": 5126,
      "count": 65532,
      "max": [
        1.7716318368911743,
        0.6939873695373535,
        1.6613280773162842
      ],
      "min": [
        -1.743207573890686,
        -0.6999136805534363,
        -1.6434376239776611
      ],
      "type": "VEC3"
    },
    {
      "bufferView": 1,
      "byteOffset": 8650224,
      "componentType": 5126,
      "count": 65532,
      "max": [
        0.9999843835830688,
        0.9999905228614807,
        0.999962329864502
      ],
      "min": [
        -0.9999968409538269,
        -0.9999987483024597,
        -0.9999755620956421
      ],
      "type": "VEC3"
    },
    {
      "bufferView": 0,
      "byteOffset": 7315500,
      "componentType": 5125,
      "count": 302706,
      "type": "SCALAR"
    },
    {
      "bufferView": 1,
      "byteOffset": 9436608,
      "componentType": 5126,
      "count": 7654,
      "max": [
        1.803699016571045,
        0.6997132301330566,
        1.6587284803390503
      ],
      "min": [
        -1.7899706363677979,
        -0.6973696947097778,
        -1.651711344718933
      ],
      "type": "VEC3"
    },
    {
      "bufferView": 1,
      "byteOffset": 9528456,
      "componentType": 5126,
      "count": 7654,
      "max": [
        0.9997180700302124,
        0.9999213814735413,
        0.9984818696975708
      ],
      "min": [
        -0.9992838501930237,
        -0.9996827840805054,
        -0.9998613595962524
      ],
      "type": "VEC3"
    },
    {
      "bufferView": 0,
      "byteOffset": 8526324,
      "componentType": 5125,
      "count": 24963,
      "type": "SCALAR"
    },
    {
      "bufferView": 2,
      "componentType": 5126,
      "count": 400,
      "max": [
        16.66666603088379
      ],
      "min": [
        0.0416666679084301
      ],
      "type": "SCALAR"
    },
    {
      "bufferView": 4,
      "componentType": 5126,
      "count": 400,
      "max": [
        0.0,
        0.9999691247940063,
        -0.0,
        1.0
      ],
      "min": [
        0.0,
        -1.0,
        -0.0,
        4.371138828673793e-08
      ],
      "type": "VEC4"
    },
    {
      "bufferView": 2,
      "byteOffset": 1600,
      "componentType": 5126,
      "count": 3,
      "max": [
        16.66666603088379
      ],
      "min": [
        0.0416666679084301
      ],
      "type": "SCALAR"
    },
    {
      "bufferView": 3,
      "componentType": 5126,
      "count": 3,
      "max": [
        1.0,
        1.0,
        1.0
      ],
      "min": [
        0.9999999403953552,
        1.0,
        0.9999999403953552
      ],
      "type": "VEC3"
    },
    {
      "bufferView": 2,
      "byteOffset": 1612,
      "componentType": 5126,
      "count": 401,
      "max": [
        16.70833396911621
      ],
      "min": [
        0.0416666679084301
      ],
      "type": "SCALAR"
    },
    {
      "bufferView": 4,
      "byteOffset": 6400,
      "componentType": 5126,
      "count": 401,
      "max": [
        0.0,
        0.9999691247940063,
        -0.0,
        1.0
      ],
      "min": [
        0.0,
        -1.0,
        -0.0,
        4.371138828673793e-08
      ],
      "type": "VEC4"
    }
  ],
  "animations": [
    {
      "channels": [
        {
          "sampler": 0,
          "target": {
            "node": 3,
            "path": "rotation"
          }
        },
        {
          "sampler": 1,
          "target": {
            "node": 3,
            "path": "scale"
          }
        }
      ],
      "name": "Action",
      "samplers": [
        {
          "input": 21,
          "interpolation": "LINEAR",
          "output": 22
        },
        {
          "input": 23,
          "interpolation": "LINEAR",
          "output": 24
        }
      ]
    },
    {
      "channels": [
        {
          "sampler": 0,
          "target": {
            "node": 3,
            "path": "rotation"
          }
        }
      ],
      "name": "CubeAction",
      "samplers": [
        {
          "input": 25,
          "interpolation": "LINEAR",
          "output": 26
        }
      ]
    }
  ],
  "asset": {
    "extras": {
      "author": "smice (https://sketchfab.com/smice)",
      "license": "CC-BY-4.0 (http://creativecommons.org/licenses/by/4.0/)",
      "source": "https://sketchfab.com/3d-models/perforated-torus-25e8c04e1d4f4f9b9a60d587a67606bc",
      "title": "Perforated Torus ㌖"
    },
    "generator": "Sketchfab-15.55.0",
    "version": "2.0"
  },
  "bufferViews": [
    {
      "buffer": 0,
      "byteLength": 8626176,
      "name": "floatBufferViews",
      "target": 34963
    },
    {
      "buffer": 0,
      "byteLength": 9620304,
      "byteOffset": 8626176,
      "byteStride": 12,
      "name": "floatBufferViews",
      "target": 34962
    },
    {
      "buffer": 0,
      "byteLength": 3216,
      "byteOffset": 18246480,
      "name": "floatBufferViews"
    },
    {
      "buffer": 0,
      "byteLength": 36,
      "byteOffset": 18249696,
      "byteStride": 12,
      "name": "floatBufferViews"
    },
    {
      "buffer": 0,
      "byteLength": 12816,
      "byteOffset": 18249732,
      "byteStride": 16,
      "name": "floatBufferViews"
    }
  ],
  "buffers": [
    {
      "byteLength": 18262548,
      "uri": "scene.bin"
    }
  ],
  "extensionsUsed": [
    "KHR_materials_clearcoat"
  ],
  "materials": [
    {
      "doubleSided": true,
      "extensions": {
        "KHR_materials_clearcoat": {
          "clearcoatFactor": 1.0,
          "clearcoatRoughnessFactor": 0.04
        }
      },
      "name": "Material",
      "pbrMetallicRoughness": {
        "baseColorFactor": [
          0.0075086333844499925,
          0.5785638236365753,
          0.8510170895604089,
          1.0
        ],
        "roughnessFactor": 0.26705019030466237
      }
    }
  ],
  "meshes": [
    {
      "name": "Object_0",
      "primitives": [
        {
          "attributes": {
            "NORMAL": 1,
            "POSITION": 0
          },
          "indices": 2,
          "material": 0,
          "mode": 4
        }
      ]
    },
    {
      "name": "Object_1",
      "primitives": [
        {
          "attributes": {
            "NORMAL": 4,
            "POSITION": 3
          },
          "indices": 5,
          "material": 0,
          "mode": 4
        }
      ]
    },
    {
      "name": "Object_2",
      "primitives": [
        {
          "attributes": {
            "NORMAL": 7,
            "POSITION": 6
          },
          "indices": 8,
          "material": 0,
          "mode": 4
        }
      ]
    },
    {
      "name": "Object_3",
      "primitives": [
        {
          "attributes": {
            "NORMAL": 10,
            "POSITION": 9
          },
          "indices": 11,
          "material": 0,
          "mode": 4
        }
      ]
    },
    {
      "name": "Object_4",
      "primitives": [
        {
          "attributes": {
            "NORMAL": 13,
            "POSITION": 12
          },
          "indices": 14,
          "material": 0,
          "mode": 4
        }
      ]
    },
    {
      "name": "Object_5",
      "primitives": [
        {
          "attributes": {
            "NORMAL": 16,
            "POSITION": 15
          },
          "indices": 17,
          "material": 0,
          "mode": 4
        }
      ]
    },
    {
      "name": "Object_6",
      "primitives": [
        {
          "attributes": {
            "NORMAL": 19,
            "POSITION": 18
          },
          "indices": 20,
          "material": 0,
          "mode": 4
        }
      ]
    }
  ],
  "nodes": [
    {
      "children": [
        1
      ],
      "matrix": [
        1.0,
        0.0,
        0.0,
        0.0,
        0.0,
        2.220446049250313e-16,
        -1.0,
        0.0,
        0.0,
        1.0,
        2.220446049250313e-16,
        0.0,
        0.0,
        0.0,
        0.0,
        1.0
      ],
      "name": "Sketchfab_model"
    },
    {
      "children": [
        2
      ],
      "name": "root"
    },
    {
      "children": [
        3
      ],
      "matrix": [
        1.0,
        0.0,
        0.0,
        0.0,
        0.0,
        2.220446049250313e-16,
        1.0,
        0.0,
        0.0,
        -1.0,
        2.220446049250313e-16,
        0.0,
        0.0,
        0.0,
        0.0,
        1.0
      ],
      "name": "GLTF_SceneRootNode"
    },
    {
      "children": [
        4,
        5,
        6,
        7,
        8,
        9,
        10
      ],
      "name": "Cube_0",
      "translation": [
        -0.0005344577948562801,
        0.07076036930084229,
        0.06171895191073418
      ]
    },
    {
      "mesh": 0,
      "name": "Object_4"
    },
    {
      "mesh": 1,
      "name": "Object_5"
    },
    {
      "mesh": 2,
      "name": "Object_6"
    },
    {
      "mesh": 3,
      "name": "Object_7"
    },
    {
      "mesh": 4,
      "name": "Object_8"
    },
    {
      "mesh": 5,
      "name": "Object_9"
    },
    {
      "mesh": 6,
      "name": "Object_10"
    }
  ],
  "scene": 0,
  "scenes": [
    {
      "name": "Sketchfab_Scene",
      "nodes": [
        0
      ]
    }
  ]
}
