{
  "accessors": [
    {
      "bufferView": 2,
      "componentType": 5126,
      "count": 192,
      "max": [
        4.346965312957764,
        15.872057914733887,
        27.673198699951172
      ],
      "min": [
        -3.946965456008911,
        7.558520317077637,
        26.794002532958984
      ],
      "type": "VEC3"
    },
    {
      "bufferView": 2,
      "byteOffset": 2304,
      "componentType": 5126,
      "count": 192,
      "max": [
        0.9952071905136108,
        0.9951620697975159,
        1.0
      ],
      "min": [
        -0.9952071905136108,
        -0.9951621890068054,
        -1.0
      ],
      "type": "VEC3"
    },
    {
      "bufferView": 1,
      "componentType": 5126,
      "count": 192,
      "max": [
        1.0,
        1.0
      ],
      "min": [
        0.0,
        0.01000000536441803
      ],
      "type": "VEC2"
    },
    {
      "bufferView": 0,
      "componentType": 5125,
      "count": 372,
      "type": "SCALAR"
    },
    {
      "bufferView": 2,
      "byteOffset": 4608,
      "componentType": 5126,
      "count": 192,
      "max": [
        1.941593050956726,
        1.8235527276992798,
        2.572862148284912
      ],
      "min": [
        -2.0584070682525635,
        -0.17644727230072021,
        -1.4271379709243774
      ],
      "type": "VEC3"
    },
    {
      "bufferView": 2,
      "byteOffset": 6912,
      "componentType": 5126,
      "count": 192,
      "max": [
        0.9951847195625305,
        1.0,
        0.9951847195625305
      ],
      "min": [
        -0.9951847195625305,
        -1.0,
        -0.9951847195625305
      ],
      "type": "VEC3"
    },
    {
      "bufferView": 1,
      "byteOffset": 1536,
      "componentType": 5126,
      "count": 192,
      "max": [
        1.0,
        1.0
      ],
      "min": [
        0.0,
        0.01000000536441803
      ],
      "type": "VEC2"
    },
    {
      "bufferView": 0,
      "byteOffset": 1488,
      "componentType": 5125,
      "count": 372,
      "type": "SCALAR"
    },
    {
      "bufferView": 2,
      "byteOffset": 9216,
      "componentType": 5126,
      "count": 35964,
      "max": [
        5.38348388671875,
        2.045318603515625,
        6.142425537109375
      ],
      "min": [
        -5.554069519042969,
        -1.867584228515625,
        -5.0191497802734375
      ],
      "type": "VEC3"
    },
    {
      "bufferView": 2,
      "byteOffset": 440784,
      "componentType": 5126,
      "count": 35964,
      "max": [
        0.9999993443489075,
        1.0,
        0.9996854066848755
      ],
      "min": [
        -0.9999994039535522,
        -0.9999992847442627,
        -0.9997276067733765
      ],
      "type": "VEC3"
    },
    {
      "bufferView": 1,
      "byteOffset": 3072,
      "componentType": 5126,
      "count": 35964,
      "max": [
        0.9999982118606567,
        -0.0013860439648851752
      ],
      "min": [
        0.0,
        -1.0
      ],
      "type": "VEC2"
    },
    {
      "bufferView": 0,
      "byteOffset": 2976,
      "componentType": 5125,
      "count": 35976,
      "type": "SCALAR"
    },
    {
      "bufferView": 2,
      "byteOffset": 872352,
      "componentType": 5126,
      "count": 9208,
      "max": [
        2.275546073913574,
        2.3985371589660645,
        2.9063282012939453
      ],
      "min": [
        -2.3905086517333984,
        0.32642674446105957,
        -1.7621774673461914
      ],
      "type": "VEC3"
    },
    {
      "bufferView": 2,
      "byteOffset": 982848,
      "componentType": 5126,
      "count": 9208,
      "max": [
        0.9999784827232361,
        1.0,
        0.9999693036079407
      ],
      "min": [
        -0.9999786019325256,
        -1.0,
        -0.9999692440032959
      ],
      "type": "VEC3"
    },
    {
      "bufferView": 1,
      "byteOffset": 290784,
      "componentType": 5126,
      "count": 9208,
      "max": [
        0.9141565561294556,
        0.9852812886238098
      ],
      "min": [
        0.06316900253295898,
        0.09948199987411499
      ],
      "type": "VEC2"
    },
    {
      "bufferView": 0,
      "byteOffset": 146880,
      "componentType": 5125,
      "count": 9324,
      "type": "SCALAR"
    },
    {
      "bufferView": 2,
      "byteOffset": 1093344,
      "componentType": 5126,
      "count": 1188,
      "max": [
        4.574896335601807,
        3.5917701721191406,
        5.653230667114258
      ],
      "min": [
        -4.679073333740234,
        -0.739269495010376,
        -2.4537315368652344
      ],
      "type": "VEC3"
    },
    {
      "bufferView": 2,
      "byteOffset": 1107600,
      "componentType": 5126,
      "count": 1188,
      "max": [
        0.9999975562095642,
        0.9998477697372437,
        0.941169261932373
      ],
      "min": [
        -0.9999976754188538,
        -0.9917089343070984,
        -0.9995960593223572
      ],
      "type": "VEC3"
    },
    {
      "bufferView": 1,
      "byteOffset": 364448,
      "componentType": 5126,
      "count": 1188,
      "max": [
        0.8795601725578308,
        0.9697087407112122
      ],
      "min": [
        0.10753130912780762,
        0.18004854023456573
      ],
      "type": "VEC2"
    },
    {
      "bufferView": 0,
      "byteOffset": 184176,
      "componentType": 5125,
      "count": 1188,
      "type": "SCALAR"
    },
    {
      "bufferView": 2,
      "byteOffset": 1121856,
      "componentType": 5126,
      "count": 5412,
      "max": [
        8.430397033691406,
        3.165740966796875,
        6.1106109619140625
      ],
      "min": [
        -7.875343322753906,
        -5.692230224609375,
        -8.372726440429688
      ],
      "type": "VEC3"
    },
    {
      "bufferView": 2,
      "byteOffset": 1186800,
      "componentType": 5126,
      "count": 5412,
      "max": [
        0.9999483823776245,
        0.9999977946281433,
        0.9999902844429016
      ],
      "min": [
        -0.9999011158943176,
        -0.9999974370002747,
        -0.999876081943512
      ],
      "type": "VEC3"
    },
    {
      "bufferView": 1,
      "byteOffset": 373952,
      "componentType": 5126,
      "count": 5412,
      "max": [
        1.0003010034561157,
        1.000490665435791
      ],
      "min": [
        -0.00016399999731220305,
        -1.0700199604034424
      ],
      "type": "VEC2"
    },
    {
      "bufferView": 0,
      "byteOffset": 188928,
      "componentType": 5125,
      "count": 5412,
      "type": "SCALAR"
    },
    {
      "bufferView": 3,
      "componentType": 5126,
      "count": 250,
      "max": [
        10.416666984558105
      ],
      "min": [
        0.0416666679084301
      ],
      "type": "SCALAR"
    },
    {
      "bufferView": 4,
      "componentType": 5126,
      "count": 250,
      "max": [
        0.7071056962013245,
        0.707037627696991,
        0.7070375680923462,
        0.7071057558059692
      ],
      "min": [
        0.0067732566967606544,
        -0.7070742845535278,
        -0.7070744633674622,
        0.006773310713469982
      ],
      "type": "VEC4"
    },
    {
      "bufferView": 3,
      "byteOffset": 1000,
      "componentType": 5126,
      "count": 1,
      "max": [
        0.0416666679084301
      ],
      "min": [
        0.0416666679084301
      ],
      "type": "SCALAR"
    },
    {
      "bufferView": 4,
      "byteOffset": 4000,
      "componentType": 5126,
      "count": 1,
      "max": [
        0.4999999403953552,
        -0.5,
        -0.5000000596046448,
        0.5
      ],
      "min": [
        0.4999999403953552,
        -0.5,
        -0.5000000596046448,
        0.5
      ],
      "type": "VEC4"
    }
  ],
  "animations": [
    {
      "channels": [
        {
          "sampler": 0,
          "target": {
            "node": 6,
            "path": "rotation"
          }
        },
        {
          "sampler": 1,
          "target": {
            "node": 16,
            "path": "rotation"
          }
        }
      ],
      "name": "Animation",
      "samplers": [
        {
          "input": 24,
          "interpolation": "LINEAR",
          "output": 25
        },
        {
          "input": 26,
          "interpolation": "LINEAR",
          "output": 27
        }
      ]
    }
  ],
  "asset": {
    "extras": {
      "author": "X9_YT (https://sketchfab.com/X9_YT)",
      "license": "CC-BY-4.0 (http://creativecommons.org/licenses/by/4.0/)",
      "source": "https://sketchfab.com/3d-models/upgraded-titan-tv-man-core-remaster-68eddf6c7f4446b29db63ad5bba63ef2",
      "title": "Upgraded Titan Tv Man Core (Remaster)"
    },
    "generator": "Sketchfab-15.55.0",
    "version": "2.0"
  },
  "bufferViews": [
    {
      "buffer": 0,
      "byteLength": 210576,
      "name": "floatBufferViews",
      "target": 34963
    },
    {
      "buffer": 0,
      "byteLength": 417248,
      "byteOffset": 210576,
      "byteStride": 8,
      "name": "floatBufferViews",
      "target": 34962
    },
    {
      "buffer": 0,
      "byteLength": 1251744,
      "byteOffset": 627824,
      "byteStride": 12,
      "name": "floatBufferViews",
      "target": 34962
    },
    {
      "buffer": 0,
      "byteLength": 1004,
      "byteOffset": 1879568,
      "name": "floatBufferViews"
    },
    {
      "buffer": 0,
      "byteLength": 4016,
      "byteOffset": 1880572,
      "byteStride": 16,
      "name": "floatBufferViews"
    }
  ],
  "buffers": [
    {
      "byteLength": 1884588,
      "uri": "scene.bin"
    }
  ],
  "extensionsUsed": [
    "KHR_materials_clearcoat"
  ],
  "materials": [
    {
      "doubleSided": true,
      "emissiveFactor": [
        0.4491939999999994,
        0.0,
        1.0
      ],
      "extensions": {
        "KHR_materials_clearcoat": {
          "clearcoatFactor": 1.0,
          "clearcoatRoughnessFactor": 0.04
        }
      },
      "name": "Material.005",
      "pbrMetallicRoughness": {
        "baseColorFactor": [
          0.0,
          0.0,
          0.0,
          1.0
        ]
      }
    },
    {
      "doubleSided": true,
      "emissiveFactor": [
        0.04720969999999988,
        0.0,
        1.0
      ],
      "extensions": {
        "KHR_materials_clearcoat": {
          "clearcoatFactor": 1.0,
          "clearcoatRoughnessFactor": 0.04
        }
      },
      "name": "Material.003"
    },
    {
      "doubleSided": true,
      "extensions": {
        "KHR_materials_clearcoat": {
          "clearcoatFactor": 1.0,
          "clearcoatRoughnessFactor": 0.04
        }
      },
      "name": "Material.001",
      "pbrMetallicRoughness": {
        "baseColorFactor": [
          0.0,
          0.0,
          0.0,
          1.0
        ],
        "metallicFactor": 0.0,
        "roughnessFactor": 0.5
      }
    },
    {
      "doubleSided": true,
      "extensions": {
        "KHR_materials_clearcoat": {
          "clearcoatFactor": 1.0,
          "clearcoatRoughnessFactor": 0.04
        }
      },
      "name": "Material.004",
      "pbrMetallicRoughness": {
        "baseColorFactor": [
          0.0,
          0.0,
          0.0,
          1.0
        ],
        "metallicFactor": 0.0,
        "roughnessFactor": 0.5
      }
    }
  ],
  "meshes": [
    {
      "name": "Object_0",
      "primitives": [
        {
          "attributes": {
            "NORMAL": 1,
            "POSITION": 0,
            "TEXCOORD_0": 2
          },
          "indices": 3,
          "material": 0,
          "mode": 4
        }
      ]
    },
    {
      "name": "Object_1",
      "primitives": [
        {
          "attributes": {
            "NORMAL": 5,
            "POSITION": 4,
            "TEXCOORD_0": 6
          },
          "indices": 7,
          "material": 1,
          "mode": 4
        }
      ]
    },
    {
      "name": "Object_2",
      "primitives": [
        {
          "attributes": {
            "NORMAL": 9,
            "POSITION": 8,
            "TEXCOORD_0": 10
          },
          "indices": 11,
          "material": 2,
          "mode": 4
        }
      ]
    },
    {
      "name": "Object_3",
      "primitives": [
        {
          "attributes": {
            "NORMAL": 13,
            "POSITION": 12,
            "TEXCOORD_0": 14
          },
          "indices": 15,
          "material": 3,
          "mode": 4
        }
      ]
    },
    {
      "name": "Object_4",
      "primitives": [
        {
          "attributes": {
            "NORMAL": 17,
            "POSITION": 16,
            "TEXCOORD_0": 18
          },
          "indices": 19,
          "material": 3,
          "mode": 4
        }
      ]
    },
    {
      "name": "Object_5",
      "primitives": [
        {
          "attributes": {
            "NORMAL": 21,
            "POSITION": 20,
            "TEXCOORD_0": 22
          },
          "indices": 23,
          "material": 2,
          "mode": 4
        }
      ]
    }
  ],
  "nodes": [
    {
      "children": [
        1
      ],
      "matrix": [
        1.0,
        0.0,
        0.0,
        0.0,
        0.0,
        2.220446049250313e-16,
        -1.0,
        0.0,
        0.0,
        1.0,
        2.220446049250313e-16,
        0.0,
        0.0,
        0.0,
        0.0,
        1.0
      ],
      "name": "Sketchfab_model"
    },
    {
      "children": [
        2
      ],
      "name": "root"
    },
    {
      "children": [
        3,
        6,
        16
      ],
      "matrix": [
        1.0,
        0.0,
        0.0,
        0.0,
        0.0,
        2.220446049250313e-16,
        1.0,
        0.0,
        0.0,
        -1.0,
        2.220446049250313e-16,
        0.0,
        0.0,
        0.0,
        0.0,
        1.0
      ],
      "name": "GLTF_SceneRootNode"
    },
    {
      "children": [
        4
      ],
      "matrix": [
        0.0,
        -1.0,
        0.0,
        0.0,
        0.0,
        0.0,
        -1.0,
        0.0,
        1.0,
        0.0,
        0.0,
        0.0,
        -0.07048317044973373,
        0.0,
        0.5747804045677185,
        1.0
      ],
      "name": "Armature_2"
    },
    {
      "children": [
        5
      ],
      "matrix": [
        0.10000000149011612,
        0.0,
        0.0,
        0.0,
        0.0,
        0.0,
        0.10000000149011612,
        0.0,
        0.0,
        -0.10000000149011612,
        0.0,
        0.0,
        0.0,
        1.8514559268951416,
        -1.1718451976776123,
        1.0
      ],
      "name": "Cylinder.001_0"
    },
    {
      "mesh": 0,
      "name": "Object_5"
    },
    {
      "children": [
        7,
        9,
        11,
        13,
        15
      ],
      "name": "Armature.001_8",
      "translation": [
        -0.068564772605896,
        -0.012076165527105331,
        0.18030039966106415
      ]
    },
    {
      "children": [
        8
      ],
      "matrix": [
        1.0,
        0.0,
        0.0,
        0.0,
        0.0,
        1.0,
        0.0,
        0.0,
        0.0,
        0.0,
        1.0,
        0.0,
        0.058407001197338104,
        -0.5995810031890869,
        -0.5728620290756226,
        1.0
      ],
      "name": "Cylinder_3"
    },
    {
      "mesh": 1,
      "name": "Object_8"
    },
    {
      "children": [
        10
      ],
      "matrix": [
        1.0,
        0.0,
        0.0,
        0.0,
        0.0,
        1.0,
        0.0,
        0.0,
        0.0,
        0.0,
        1.0,
        0.0,
        0.058407001197338104,
        -0.5995810031890869,
        -0.5728620290756226,
        1.0
      ],
      "name": "model_1_4"
    },
    {
      "mesh": 2,
      "name": "Object_10"
    },
    {
      "children": [
        12
      ],
      "matrix": [
        1.0,
        0.0,
        0.0,
        0.0,
        0.0,
        1.0,
        0.0,
        0.0,
        0.0,
        0.0,
        1.0,
        0.0,
        0.058407001197338104,
        -0.5995810031890869,
        -0.5728620290756226,
        1.0
      ],
      "name": "model_19_5"
    },
    {
      "mesh": 3,
      "name": "Object_12"
    },
    {
      "children": [
        14
      ],
      "matrix": [
        1.0,
        0.0,
        0.0,
        0.0,
        0.0,
        1.0,
        0.0,
        0.0,
        0.0,
        0.0,
        1.0,
        0.0,
        0.058407001197338104,
        -0.5995810031890869,
        -0.5728620290756226,
        1.0
      ],
      "name": "model_19.001_6"
    },
    {
      "mesh": 4,
      "name": "Object_14"
    },
    {
      "name": "Bone_7"
    },
    {
      "children": [
        17,
        19
      ],
      "name": "Armature.003_11",
      "translation": [
        -0.068564772605896,
        -0.01207633689045906,
        0.4256824553012848
      ]
    },
    {
      "children": [
        18
      ],
      "matrix": [
        1.0,
        0.0,
        0.0,
        0.0,
        0.0,
        1.0,
        0.0,
        0.0,
        0.0,
        0.0,
        1.0,
        0.0,
        0.058407001197338104,
        -0.5995810031890869,
        -0.5728620290756226,
        1.0
      ],
      "name": "model_9.001_9"
    },
    {
      "mesh": 5,
      "name": "Object_18"
    },
    {
      "name": "Bone_10"
    }
  ],
  "scene": 0,
  "scenes": [
    {
      "name": "Sketchfab_Scene",
      "nodes": [
        0
      ]
    }
  ]
}
